<svg width="100%" viewBox="0 0 57 57" fill="#fff" xmlns="http://www.w3.org/2000/svg"><path d="M54.08 15.55c-1.8.8-3.76 1.35-5.8 1.6a10.13 10.13 0 004.44-5.6c-1.95 1.16-4.11 2-6.42 2.45a10.1 10.1 0 00-17.22 9.22A28.69 28.69 0 018.25 12.66a10.1 10.1 0 003.13 13.5c-1.66-.06-3.22-.51-4.58-1.27v.13c0 4.9 3.48 8.98 8.1 9.9a10.14 10.14 0 01-4.56.18 10.12 10.12 0 009.44 7.02 20.28 20.28 0 01-14.96 4.19 28.6 28.6 0 0015.5 4.54c18.58 0 28.75-15.4 28.75-28.76 0-.44-.01-.88-.03-1.3a20.52 20.52 0 005.04-5.24z"/></svg>
