<svg width="100%" height="100%" viewBox="0 0 50 50" version="1.1" xmlns="http://www.w3.org/2000/svg" xml:space="preserve" fill-rule="evenodd" clip-rule="evenodd" stroke-linejoin="round" stroke-miterlimit="1.414"><g fill="#fff" fill-rule="nonzero"><path d="M24.785 0c13.645.003 24.706 11.093 24.7 24.763C49.482 38.42 38.41 49.488 24.75 49.488 11.062 49.488-.005 38.413 0 24.725.009 11.043 11.081-.003 24.787 0h-.002zm8.156 20.666c-.376-.09-.725-.226-1.08-.246-1.2-.07-2.24.653-2.745 1.855-.684 1.634-.21 4.09 1.037 5.354 1.223 1.242 3.02 1.205 4.188-.084.105-.116.21-.233.257-.287.236.186.442.48.61.46.65-.08 1.286-.26 1.96-.41l-2.347-10.575-2.658.598.778 3.335zM9.728 22.313l-2.67.59 2.344 10.574 2.653-.59c-.335-1.5-.66-2.96-.987-4.415-.148-.657.2-1.198.86-1.354.407-.097.695.033.83.425.118.346.208.7.29 1.057.29 1.275.57 2.553.863 3.877l2.598-.577c.007-.092.023-.143.013-.19-.35-1.573-.677-3.152-1.067-4.715a5.528 5.528 0 0 0-.65-1.497c-.372-.617-.952-.965-1.706-.944-.812.023-1.538.262-2.108.87-.164.173-.316.36-.517.59l-.747-3.7.001-.001zm12.747 5.9c-1.845 1.12-2.842 1.106-3.433-.07.703-.162 1.395-.324 2.088-.48.71-.158 1.422-.31 2.153-.47-.01-1.133-.3-2.14-.996-2.996-.757-.928-1.76-1.288-2.94-1.09-2.007.34-3.223 1.877-3.194 4.01.024 1.77 1.116 3.38 2.634 3.882 1.615.535 3.804-.116 4.85-1.464l-1.162-1.322zm13.284-11.71c.304 1.383.59 2.73.897 4.07.352 1.54.677 3.085 1.094 4.606.495 1.803 2.304 2.126 3.98 1.01l-.705-1.777c-.6.066-.748-.04-.88-.63-.306-1.378-.605-2.758-.91-4.138-.272-1.23-.547-2.457-.83-3.725l-2.646.582v.002zm-8.408 12.988l-.852-3.864a1.632 1.632 0 0 1 1.443-1.993c.194-.02.39-.032.578-.047v-2.296c-1.153-.317-2.08.287-2.88 1.875l-.478-1.173-2.147.48 1.685 7.602 2.65-.584h.001z"/><path d="M31.415 23.797c.11-.97.63-1.472 1.457-1.346.31.048.502.19.565.522.127.668.283 1.33.425 1.995.118.55-.036.878-.504 1.08-.5.215-1.028.12-1.26-.356-.29-.6-.46-1.26-.682-1.896l-.001.001zm-10.66 2.246c-.69.153-1.38.308-2.072.463-.1-.717.242-1.215.893-1.353.62-.13.987.133 1.18.89h-.001z"/></g></svg>